PathFileType	4	(X/Y/Z)	c:/Users/goper/Files/vsCode/490R/osim_files/C05/C05_Slow_04.trc
DataRate	CameraRate	NumFrames	NumMarkers	Units                	OrigDataRate	OrigDataStartFrame	OrigNumFrames
250.00	250.00	7	36	mm	250.0	1712	2739
                Frame#	Time	LPSIS			LASIS			LTH1			LTH2			LTH3			LTH4			LLFE			LMFE			LSH1			LSH2			LSH3			LSH4			LLMAL			LMMAL			LCAL			LMTP5			LTOE			LMTP1			RPSIS			RASIS			RTH1			RTH2			RTH3			RTH4			RLFE			RMFE			RSH1			RSH2			RSH3			RSH4			RLMAL			RMMAL			RCAL			RMTP1			RTOE			RMTP5		
		X1	Y1	Z1	X2	Y2	Z2	X3	Y3	Z3	X4	Y4	Z4	X5	Y5	Z5	X6	Y6	Z6	X7	Y7	Z7	X8	Y8	Z8	X9	Y9	Z9	X10	Y10	Z10	X11	Y11	Z11	X12	Y12	Z12	X13	Y13	Z13	X14	Y14	Z14	X15	Y15	Z15	X16	Y16	Z16	X17	Y17	Z17	X18	Y18	Z18	X19	Y19	Z19	X20	Y20	Z20	X21	Y21	Z21	X22	Y22	Z22	X23	Y23	Z23	X24	Y24	Z24	X25	Y25	Z25	X26	Y26	Z26	X27	Y27	Z27	X28	Y28	Z28	X29	Y29	Z29	X30	Y30	Z30	X31	Y31	Z31	X32	Y32	Z32	X33	Y33	Z33	X34	Y34	Z34	X35	Y35	Z35	X36	Y36	Z36

1712	6.84400	-1994.20837	1057.58325	344.64273	-2197.02905	1026.70593	398.98691	-2084.01709	709.49164	439.06494	-2092.21680	647.52930	428.58380	-2160.07422	713.59583	436.44321	-2158.97339	652.96326	426.88583	-2128.14404	543.33783	404.66367	-2123.50024	538.22571	287.53931	-2020.69519	371.96640	402.60440	-2022.40784	329.66907	398.22476	-2084.54150	364.44632	412.77399	-2075.08740	323.14868	404.27536	-2025.10547	103.20123	352.95773	-2054.07764	119.87617	272.03143	-1966.64209	76.53922	299.64609	-2165.53247	46.55219	378.41940	-2202.87817	72.49744	318.32550	-2188.28589	58.39899	269.11551	-1993.34729	1058.59119	235.62671	-2183.41064	1028.82178	169.09035	-2269.48145	724.82281	106.42609	-2297.22266	669.45801	116.00591	-2203.27295	685.73346	108.89941	-2241.11108	636.48737	120.31731	0.00000	0.00000	0.00000	-2315.54492	572.19788	132.29611	-2192.00171	458.46884	115.81078	-2176.18237	412.63773	118.10866	-2247.06348	429.57144	115.93178	-2224.67944	389.16623	119.14198	-2088.68433	192.26605	144.66948	-2117.61230	187.23491	227.60475	-2019.27991	185.27245	197.49664	-2205.89136	73.57552	207.60074	-2229.87646	92.37016	159.34059	-2171.03320	82.15140	100.90071
1713	6.84800	-1997.65759	1057.52368	344.52448	-2201.37549	1026.87805	399.36816	-2085.83740	709.74707	439.35315	-2093.77710	647.77527	428.61502	-2162.00562	713.53766	436.49783	-2160.39160	652.75867	427.12372	-2129.14917	543.25385	404.90652	-2124.56836	538.05298	287.78787	-2021.16382	372.14713	402.64243	-2023.55640	328.35489	398.34164	-2084.89673	364.44446	412.89584	-2076.47485	323.68634	404.83002	-2025.20398	103.25590	352.93216	-2054.12476	119.96330	272.02670	-1966.98999	76.43476	299.63193	-2165.52124	46.48515	378.43884	-2202.93262	72.41773	318.37329	-2185.63013	56.89919	268.49631	-1996.64819	1058.62256	235.53799	-2187.11157	1028.96277	169.25089	-2274.49316	725.73181	106.67225	-2302.46826	670.56946	116.43641	-2208.42236	686.39050	108.53040	-2248.74072	637.11475	120.87569	0.00000	0.00000	0.00000	-2321.05518	573.28955	132.65588	-2199.40039	456.83841	115.49121	-2183.87891	410.97903	117.76177	-2254.80444	429.17917	115.86697	-2233.14111	388.20969	118.96950	-2101.65698	188.61374	144.36139	-2130.53931	183.94023	227.19063	-2032.17102	179.96249	197.27406	-2221.35962	72.09011	207.18513	-2244.75977	91.93629	158.51617	-2186.13599	80.60690	100.06339
1714	6.85200	-2001.17993	1057.41943	344.42935	-2204.45410	1026.48743	399.18512	-2087.65918	709.97388	439.27756	-2095.32495	647.81952	428.77274	-2164.48633	713.42535	436.58069	-2161.93945	652.60425	427.27554	-2130.09058	543.11963	405.17365	-2125.65918	537.90375	287.97864	-2021.60291	372.28534	402.70801	-2023.13391	329.94974	398.43500	-2085.33130	364.44193	413.06018	-2075.77124	323.28659	404.63617	-2025.27502	103.32679	352.94125	-2054.28735	120.03225	272.03275	-1967.01624	76.55669	299.64572	-2165.54712	46.42632	378.47168	-2202.96899	72.31509	318.41623	-2185.70801	56.89804	268.49744	-2000.49048	1058.58081	235.34790	-2190.84985	1029.03162	169.39151	-2278.78223	726.21631	106.88281	-2307.03149	671.53546	116.62372	-2213.49292	686.99493	108.17934	-2253.85571	637.84021	120.66891	0.00000	0.00000	0.00000	-2326.36743	574.28827	132.98834	-2206.57422	455.23810	115.23064	-2192.53760	408.84949	117.52901	-2262.58374	428.75061	115.84647	-2241.36621	387.40689	118.83015	-2114.38989	185.03667	144.02917	-2143.52441	180.71513	226.82602	-2045.28882	174.63585	197.04375	-2237.71289	71.30206	206.70227	-2259.60352	91.40465	157.61609	-2201.21704	79.06499	99.20570
1715	6.85600	-2004.63159	1057.32190	344.23752	-2208.26025	1026.38562	399.21136	-2088.71655	710.08923	439.04581	-2097.01196	647.97803	429.03476	-2165.43433	713.25433	436.75760	-2163.43359	652.39728	427.44537	-2131.13916	543.00751	405.41559	-2126.80762	537.76947	288.21558	-2022.04443	372.48877	402.74750	-2023.25269	330.00595	398.25809	-2085.74487	364.46182	413.23080	-2074.83374	323.00998	403.84195	-2025.37512	103.39447	352.92828	-2054.40015	120.12062	272.05682	-1967.06262	76.65469	299.64459	-2165.51392	46.38150	378.49167	-2202.98169	72.21281	318.44574	-2185.69507	56.81599	268.48175	-2004.14075	1058.50732	235.26834	-2194.48218	1029.06714	169.46869	-2284.04443	727.52673	107.42094	-2311.79858	672.52686	117.02938	-2218.45532	687.52588	107.84422	-2258.28931	638.05328	120.34041	0.00000	0.00000	0.00000	-2331.58936	575.22894	133.36519	-2213.68140	453.47342	114.91713	-2200.61206	406.87146	117.29452	-2270.29858	428.29599	115.82162	-2249.94116	386.46054	118.71795	-2127.32373	181.44878	143.65434	-2156.64502	177.56079	226.42799	-2058.47949	169.28854	196.74706	-2253.14087	70.22666	205.78101	-2274.70142	91.08762	156.71231	-2216.47778	77.66040	98.37526
1716	6.86000	-2008.19043	1057.16638	344.06317	-2210.48071	1025.89294	399.59503	-2091.27686	710.28833	439.39880	-2098.55029	648.08795	429.06281	-2167.31812	713.00458	436.87106	-2165.05933	652.28223	427.61331	-2132.11279	542.96027	405.61539	-2127.70166	537.63806	288.34760	-2022.50037	372.72635	402.75168	-2023.53955	330.20786	398.24603	-2086.16235	364.53265	413.39474	-2075.19165	323.06970	404.01804	-2025.47412	103.47832	352.92313	-2054.56958	120.21393	272.08414	-1967.09460	76.74934	299.64093	-2165.54663	46.35215	378.54266	-2203.23779	72.24525	318.56677	-2185.86450	56.90087	268.54898	-2007.75623	1058.42029	235.13750	-2198.24219	1029.12634	169.63719	-2288.72559	728.27612	107.74884	-2316.70435	673.38074	117.35868	-2223.28052	687.99243	107.52857	-2263.40479	638.68555	120.24560	0.00000	0.00000	0.00000	-2336.63647	576.03632	133.67223	-2220.72485	451.75958	114.70110	-2208.42163	404.95090	117.10574	-2277.92969	427.77151	115.75320	-2258.52515	385.49545	118.60044	-2140.26562	177.87534	143.28268	-2170.00415	174.39970	226.02153	-2071.83423	164.07344	196.55098	-2268.55640	69.00210	204.62474	-2290.10107	91.00677	156.07300	-2231.75830	76.31024	97.54752
1717	6.86400	-2011.51123	1057.13916	343.97598	-2215.51416	1026.34741	399.93289	-2093.11890	710.51111	439.59198	-2099.96313	648.29126	429.13721	-2169.19849	712.83356	436.91693	-2167.70386	652.49481	428.19977	-2133.32007	542.96973	405.77026	-2128.91797	537.48804	288.53738	-2022.96997	372.95428	402.78348	-2023.78979	329.23996	398.15836	-2085.66748	364.87381	413.26566	-2075.56616	323.15457	404.13483	-2025.56189	103.56023	352.91470	-2054.59937	120.26871	272.03964	-1967.17896	76.86672	299.60236	-2165.57275	46.35459	378.52893	-2202.91748	72.00116	318.49988	-2185.89795	56.86967	268.59344	-2011.38013	1058.37158	234.94023	-2201.96045	1029.10205	169.74298	-2293.36475	728.89117	107.96927	-2321.46875	674.12982	117.71244	-2228.11060	688.41949	107.21066	-2268.24390	639.17719	120.10113	0.00000	0.00000	0.00000	-2341.58447	576.77246	133.96397	-2227.11597	450.20673	114.31172	-2216.69775	402.84491	116.80494	-2285.25464	427.25452	115.63777	-2266.59155	384.69009	118.40136	-2153.27808	174.34050	142.86636	-2183.23462	171.32263	225.57347	-2085.14282	158.96101	196.27235	-2284.33179	68.45425	203.95038	-2305.35645	90.94105	155.05165	-2247.02612	75.04475	96.74725
1718	6.86800	-2015.15393	1057.07654	343.68393	-2217.43823	1025.49438	399.83630	-2094.38818	710.50177	439.12164	-2101.64771	647.85370	429.45782	-2171.13599	712.72925	436.98236	-2168.33521	652.01770	427.79053	-2134.31104	542.95184	405.95160	-2129.94092	537.36676	288.60840	-2023.50232	373.17712	402.81592	-2024.44678	329.08957	398.26691	-2086.17969	364.93314	413.39032	-2076.29419	323.39478	404.41876	-2025.65576	103.67315	352.89368	-2054.70337	120.36176	272.03247	-1967.22107	76.99894	299.58975	-2165.61157	46.35089	378.56113	-2203.45166	72.05882	318.49219	-2185.86621	56.82864	268.56305	-2015.04797	1058.29089	234.73457	-2205.76758	1029.06506	169.84918	-2297.92456	729.45691	108.16044	-2325.98682	674.69769	118.07123	-2232.74390	688.76721	106.88786	-2273.49878	640.18152	120.24120	0.00000	0.00000	0.00000	-2346.36792	577.37152	134.25035	-2234.90308	447.97333	114.33610	-2225.09326	400.61359	116.68016	-2293.45581	426.66339	115.78059	-2276.14819	383.52423	118.55411	-2166.86621	170.59715	142.48605	-2196.52002	168.29915	225.07591	-2098.99658	153.69975	195.93053	-2299.99146	67.75159	203.06024	-2320.40723	90.85152	154.24478	-2262.41187	73.83685	95.89579
